:FULLY-SPECIFIED
:FORCE-ALL-JOINTS-BE-3DOF
:DEGREES
307
root 10.0162 16.7529 6.1858 7.37394 7.44989 5.10003
lfemur 13.7066 2.92769 -28.7047
ltibia 6.36111e-15 0 0
lfoot -14.6643 0.872805 0
ltoes 1.19895 0 0
rfemur -44.1939 18.1536 -0.849533
rtibia 25.2359 0 0
rfoot -32.8452 -19.8742 0
rtoes -21.3767 0 0
lowerback -8.02387 -4.9625 -6.90312
upperback -0.755937 -6.07315 1.90723
thorax 4.62974 -3.16703 5.0961
lowerneck -18.8571 -4.68291 -12.8086
upperneck 21.7683 -5.85366 12.2363
head 10.8954 -2.32653 5.74676
lclavicle -4.66647e-14 -3.18055e-15 0
lhumerus -11.9981 -35.5609 90.3238
lradius 37.2263 0 0
lwrist 17.6575 0 0
lhand -11.3006 -20.8009 0
lfingers 7.12502 0 0
lthumb 14.7309 8.6557 0
rclavicle -4.66647e-14 -3.18055e-15 0
rhumerus -49.7118 6.05712 -82.7475
rradius 34.614 0 0
rwrist -18.9952 0 0
rhand -28.2791 -27.186 0
rfingers 7.12502 0 0
rthumb -1.65544 -57.1593 0
308
root 10.0047 16.7292 6.35042 7.42804 7.5867 5.03574
lfemur 14.2457 3.04354 -28.3725
ltibia 1.32523e-14 0 0
lfoot -14.5572 0.640754 -0.00108476
ltoes 0.007715 -0 0
rfemur -43.9006 16.7933 0.238468
rtibia 25.1264 -0 0
rfoot -31.8779 -19.1657 0.0299281
rtoes -20.7307 0 0
lowerback -8.1018 -4.9565 -6.86386
upperback -0.76554 -6.06334 1.91035
thorax 4.65804 -3.16176 5.07333
lowerneck -18.9012 -4.73484 -12.7411
upperneck 21.7703 -5.94267 12.2328
head 10.9156 -2.36031 5.71952
lclavicle -4.36291e-14 1.98786e-15 0
lhumerus -12.3895 -36.1762 90.702
lradius 37.7028 -0 0
lwrist 17.252 0 0
lhand -10.9382 -21.048 -0.00390757
lfingers 7.12502 0 0
lthumb 15.0799 8.38103 -0.00418323
rclavicle -4.36291e-14 1.98786e-15 0
rhumerus -49.7257 5.96618 -82.7746
rradius 34.1759 -0 0
rwrist -18.7614 0 0
rhand -28.3001 -26.3433 -0.000772203
rfingers 7.12502 0 0
rthumb -1.67572 -56.3165 -0.00074629
309
root 9.99317 16.7056 6.51504 7.48201 7.72356 4.97155
lfemur 14.7855 3.15626 -28.0391
ltibia 2.01435e-14 0 0
lfoot -14.45 0.4087 -0.00173562
ltoes -1.18352 0 0
rfemur -43.6361 15.4279 1.31178
rtibia 25.0168 -0 0
rfoot -30.9104 -18.4569 0.0478902
rtoes -20.0846 0 0
lowerback -8.17972 -4.95045 -6.82461
upperback -0.775143 -6.05353 1.91348
thorax 4.68634 -3.15647 5.05056
lowerneck -18.9454 -4.78673 -12.6735
upperneck 21.7723 -6.03169 12.2292
head 10.9358 -2.39409 5.69228
lclavicle -4.05935e-14 7.15627e-15 0
lhumerus -12.789 -36.7893 91.0885
lradius 38.1793 -0 0
lwrist 16.8465 0 0
lhand -10.5758 -21.2951 -0.00625221
lfingers 7.12502 0 0
lthumb 15.4289 8.10634 -0.00669327
rclavicle -4.05935e-14 7.15627e-15 0
rhumerus -49.7395 5.87523 -82.8016
rradius 33.7379 -0 0
rwrist -18.5275 0 0
rhand -28.3211 -25.5007 -0.00123559
rfingers 7.12502 0 0
rthumb -1.69602 -55.4737 -0.00119413
310
root 9.98165 16.6819 6.67967 7.53584 7.86049 4.90748
lfemur 15.326 3.26583 -27.7047
ltibia 2.70347e-14 0 0
lfoot -14.3429 0.176647 -0.00195258
ltoes -2.37475 0 0
rfemur -43.3997 14.0581 2.37187
rtibia 24.9073 -0 0
rfoot -29.9426 -17.7478 0.0538784
rtoes -19.4386 0 0
lowerback -8.25763 -4.94435 -6.78537
upperback -0.784745 -6.04372 1.9166
thorax 4.71464 -3.15118 5.0278
lowerneck -18.9896 -4.83856 -12.6059
upperneck 21.7744 -6.1207 12.2257
head 10.9561 -2.42785 5.66502
lclavicle -3.75579e-14 1.23247e-14 0
lhumerus -13.197 -37.4002 91.4835
lradius 38.6559 -0 0
lwrist 16.441 0 0
lhand -10.2134 -21.5422 -0.00703377
lfingers 7.12502 0 0
lthumb 15.778 7.83164 -0.00752997
rclavicle -3.75579e-14 1.23247e-14 0
rhumerus -49.7533 5.78428 -82.8287
rradius 33.2998 -0 0
rwrist -18.2936 0 0
rhand -28.3421 -24.658 -0.00139007
rfingers 7.12502 0 0
rthumb -1.71632 -54.6309 -0.00134342
311
root 9.97014 16.6582 6.84429 7.58953 7.99747 4.84352
lfemur 15.8672 3.37225 -27.3692
ltibia 3.39259e-14 0 0
lfoot -14.2358 -0.0554074 -0.00173562
ltoes -3.56599 0 0
rfemur -43.1906 12.6842 3.42014
rtibia 24.7978 -0 0
rfoot -28.9749 -17.0387 0.0478902
rtoes -18.7925 0 0
lowerback -8.33554 -4.93819 -6.74613
upperback -0.794347 -6.03391 1.91972
thorax 4.74293 -3.14587 5.00504
lowerneck -19.0339 -4.89034 -12.5382
upperneck 21.7764 -6.20971 12.2222
head 10.9763 -2.4616 5.63774
lclavicle -3.45223e-14 1.74931e-14 0
lhumerus -13.6138 -38.0089 91.8872
lradius 39.1324 -0 0
lwrist 16.0354 0 0
lhand -9.85093 -21.7893 -0.00625221
lfingers 7.12502 0 0
lthumb 16.127 7.55694 -0.00669327
rclavicle -3.45223e-14 1.74931e-14 0
rhumerus -49.767 5.69332 -82.8557
rradius 32.8617 -0 0
rwrist -18.0598 0 0
rhand -28.3631 -23.8153 -0.00123559
rfingers 7.12502 0 0
rthumb -1.73661 -53.788 -0.00119413
